<svg xmlns="http://www.w3.org/2000/svg" viewBox="0 0 1076.93 1061.84"><defs><style>.cls-1{fill:#fff;}</style></defs><g id="Layer_2" data-name="Layer 2"><g id="Layer_1-2" data-name="Layer 1"><g id="_4JbibQ" data-name="4JbibQ"><path class="cls-1" d="M0,226C1.75,196.32.59,166.08,5.81,137,20.24,56.52,88.8.79,170.67.19q58.2-.44,116.4,0c25.76.17,40.35,12.31,39.6,32.17C326,51.54,312.3,62.13,287.25,62.3c-33.57.21-67.15-.28-100.72.12C119.2,63.2,69,106.77,62.8,173.43c-3.71,40-2,80.46-2.59,120.72-.25,16.65-5.82,29.39-24,32.52C16.8,330,2.57,317.52,1.87,295.51c-.73-23.11-.16-46.26-.16-69.39Z"/><path class="cls-1" d="M1075.3,227.19c0,20.89.22,41.79,0,62.67-.31,24.83-9.89,36.92-28.91,37.25s-29.41-11.85-29.68-36.19c-.35-31.33.22-62.68-.18-94-1.08-85-51.24-134.48-136-134.59-31.34,0-62.68.26-94-.14-22.57-.28-36.09-12.25-36.21-30.89C750.14,13,764.11.1,786.47.38,837.85,1,890-2.39,940.42,5.12c77.89,11.59,133.53,82.64,134.82,161.64C1075.57,186.9,1075.29,207.05,1075.3,227.19Z"/><path class="cls-1" d="M224.62,1061.84c-28.2-1.49-56.89-.2-84.53-5C60.13,1043,3.12,974.56,1.8,893.43c-.66-41-.32-81.95-.1-122.92.14-24.33,10.18-36.86,28.89-37.21,19.23-.36,29,11.34,29.57,36.13.94,40.18-.77,80.59,3,120.5C69.11,952.62,119.35,996.82,182.29,998c35.74.69,71.52-.07,107.27.26,23.26.22,36.45,11.12,37.25,29.71.81,18.77-14,31.89-37.31,32.29-21.59.38-43.2.08-64.81.08C224.67,1060.87,224.65,1061.35,224.62,1061.84Z"/><path class="cls-1" d="M1076.93,834.58c-1.73,29.66-.48,59.86-5.75,88.89-14.58,80.42-82.91,136.17-164.37,136.88-39.47.35-78.94.26-118.41,0-23.87-.18-38.16-12.26-38.19-31.25,0-18.82,14.38-30.61,38.51-30.79,32.76-.24,65.54.07,98.3-.1,72.38-.37,121.53-43.69,127.78-116.12,3.32-38.47,1.43-77.37,2-116.08.25-17.74,7.06-30.57,26.45-32.43,18.76-1.79,31.16,10.17,31.86,31.69.75,23.07.17,46.17.17,69.26Z"/><path class="cls-1" d="M544.34,855.71c-68.33-2.14-129.21-26.14-180-74.51-16.68-15.89-19-36.11-6.54-49.19,13.5-14.21,29.06-12.46,48.49,5.46,86.18,79.5,189.47,79.47,275.94-.09,19.33-17.79,35.13-19.59,48.72-5.55s11.34,33.25-7.41,50.57C673.44,828.65,614.33,853.44,544.34,855.71Z"/><path class="cls-1" d="M592.08,496.61c0,32.79.51,65.58-.11,98.35-1,52.21-63.8,93.28-111.48,71.54-8.83-4-16.21-18.63-17.83-29.33-2.36-15.53,10.19-23.48,24.58-26.66,33.7-7.45,33.73-7.38,33.74-41.23q0-88.3.09-176.59c0-19.49,8.87-33.23,28.28-37.62,17.46-3.95,31.09,3.52,38.59,19.35,3.33,7,3.94,15.82,4,23.84.42,32.78.18,65.57.18,98.35Z"/><path class="cls-1" d="M368.23,439.59c0,12.64.62,25.32-.11,37.93-1.27,22.05-16.76,38-37.86,40-18.88,1.83-40.54-11.49-42.37-31.8a519.38,519.38,0,0,1,.07-93.15c1.88-20.89,22.14-33.85,41.69-32.57,20.84,1.37,37,17.36,38.4,39.39C368.92,412.76,368.21,426.2,368.23,439.59Z"/><path class="cls-1" d="M802.73,439.06c0,13.37.79,26.79-.2,40.08-1.66,22.46-19.47,38.51-41.36,38.56-19.92,0-38.52-16.22-39.59-37.81a796.68,796.68,0,0,1,.14-82.36c1.19-22,18.92-37,39.88-37.18,21.86-.15,39.28,15.73,41,38.64C803.54,412.28,802.74,425.7,802.73,439.06Z"/></g></g></g></svg>