<svg xmlns="http://www.w3.org/2000/svg" viewBox="0 0 1076.93 1061.84"><defs><style>.cls-1{fill:#37f74a;}.cls-2{fill:none;stroke:#37f74a;stroke-linecap:round;stroke-linejoin:round;stroke-width:72px;}</style></defs><g id="Layer_2" data-name="Layer 2"><g id="Layer_1-2" data-name="Layer 1"><path class="cls-1" d="M0,226C1.75,196.32.59,166.08,5.81,137,20.24,56.52,88.8.79,170.67.19q58.2-.44,116.4,0c25.76.17,40.35,12.31,39.6,32.17C326,51.54,312.3,62.13,287.25,62.3c-33.57.21-67.15-.28-100.72.12C119.2,63.2,69,106.77,62.8,173.43c-3.71,40-2,80.46-2.59,120.72-.25,16.65-5.82,29.39-24,32.52C16.8,330,2.57,317.52,1.87,295.51c-.73-23.11-.16-46.26-.16-69.39Z"/><path class="cls-1" d="M1075.3,227.19c0,20.89.22,41.79,0,62.67-.31,24.83-9.89,36.92-28.91,37.25s-29.41-11.85-29.68-36.19c-.35-31.33.22-62.68-.18-94-1.08-85-51.24-134.48-136-134.59-31.34,0-62.68.26-94-.14-22.57-.28-36.09-12.25-36.21-30.89C750.14,13,764.11.1,786.47.38,837.85,1,890-2.39,940.42,5.12c77.89,11.59,133.53,82.64,134.82,161.64C1075.57,186.9,1075.29,207.05,1075.3,227.19Z"/><path class="cls-1" d="M224.62,1061.84c-28.2-1.49-56.89-.2-84.53-5C60.13,1043,3.12,974.56,1.8,893.43c-.66-41-.32-81.95-.1-122.92.14-24.33,10.18-36.86,28.89-37.21,19.23-.36,29,11.34,29.57,36.13.94,40.18-.77,80.59,3,120.5C69.11,952.62,119.35,996.82,182.29,998c35.74.69,71.52-.07,107.27.26,23.26.22,36.45,11.12,37.25,29.71.81,18.77-14,31.89-37.31,32.29-21.59.38-43.2.08-64.81.08C224.67,1060.87,224.65,1061.35,224.62,1061.84Z"/><path class="cls-1" d="M1076.93,834.58c-1.73,29.66-.48,59.86-5.75,88.89-14.58,80.42-82.91,136.17-164.37,136.88-39.47.35-78.94.26-118.41,0-23.87-.18-38.16-12.26-38.19-31.25,0-18.82,14.38-30.61,38.51-30.79,32.76-.24,65.54.07,98.3-.1,72.38-.37,121.53-43.69,127.78-116.12,3.32-38.47,1.43-77.37,2-116.08.25-17.74,7.06-30.57,26.45-32.43,18.76-1.79,31.16,10.17,31.86,31.69.75,23.07.17,46.17.17,69.26Z"/><polyline class="cls-2" points="343.32 518.79 488.05 663.52 750.25 401.32"/></g></g></svg>