<?xml version="1.0" standalone="no"?>
<!DOCTYPE svg PUBLIC "-//W3C//DTD SVG 20010904//EN"
 "http://www.w3.org/TR/2001/REC-SVG-20010904/DTD/svg10.dtd">
<svg version="1.0" xmlns="http://www.w3.org/2000/svg"
 width="1920.000000pt" height="1080.000000pt" viewBox="0 0 1920.000000 1080.000000"
 preserveAspectRatio="xMidYMid meet">

<g transform="translate(0.000000,1080.000000) scale(0.100000,-0.100000)"
fill="#000000" stroke="none">
<path d="M9430 8834 c-686 -46 -1296 -259 -1822 -635 -823 -590 -1337 -1480
-1438 -2489 -15 -148 -15 -502 0 -650 70 -703 344 -1358 791 -1890 839 -1000
2153 -1438 3429 -1145 677 155 1322 535 1780 1049 495 555 786 1210 872 1961
16 141 16 557 0 700 -100 881 -500 1662 -1145 2232 -545 481 -1210 774 -1939
852 -104 12 -439 21 -528 15z m505 -125 c1073 -99 2047 -738 2578 -1690 229
-409 369 -868 408 -1338 17 -195 6 -578 -21 -756 -93 -619 -334 -1164 -727
-1645 -104 -127 -324 -346 -453 -451 -213 -173 -405 -297 -645 -414 -353 -174
-691 -273 -1090 -321 -168 -20 -559 -23 -715 -5 -666 75 -1239 311 -1750 718
-119 95 -366 338 -469 463 -425 511 -673 1097 -753 1775 -16 142 -16 568 0
710 49 418 152 766 332 1130 151 305 342 573 590 828 277 286 549 487 888 657
573 287 1177 399 1827 339z"/>
<path d="M9315 8669 c-749 -79 -1378 -359 -1939 -863 -191 -171 -419 -454
-573 -707 -522 -863 -620 -1899 -271 -2839 345 -927 1082 -1644 2018 -1965
559 -191 1160 -227 1740 -104 399 85 805 258 1150 489 246 166 544 439 724
665 385 484 625 1054 701 1669 88 706 -74 1455 -452 2081 -594 987 -1670 1591
-2823 1584 -107 -1 -231 -5 -275 -10z m705 -113 c813 -110 1495 -478 2024
-1096 351 -408 586 -891 695 -1425 45 -223 55 -337 55 -635 0 -306 -10 -411
-61 -660 -42 -209 -159 -567 -199 -611 -30 -33 -98 -59 -152 -59 -92 0 -151
41 -192 132 -17 40 -22 79 -30 260 -5 117 -12 251 -15 298 -3 47 -10 164 -15
260 -111 1975 -105 1891 -132 1925 -46 59 -117 12 -138 -92 -7 -32 -99 -368
-205 -748 -106 -379 -255 -910 -330 -1180 -151 -541 -153 -546 -246 -602 -44
-28 -63 -33 -113 -33 -136 0 -215 88 -270 302 -13 51 -67 237 -120 413 -53
176 -156 529 -230 785 -74 256 -135 461 -135 455 -1 -5 -12 -246 -26 -535 -30
-654 -46 -908 -57 -938 -7 -22 -9 -22 -30 -8 -13 9 -43 16 -70 16 -61 0 -93
-27 -118 -100 -18 -52 -21 -55 -51 -53 -35 1 -72 25 -103 66 l-20 27 54 55
c53 54 54 54 75 36 33 -30 59 -34 88 -11 33 26 34 36 47 295 19 384 31 618 40
800 5 99 17 326 26 505 17 345 20 360 70 382 53 24 99 -30 123 -142 6 -30 52
-190 101 -355 84 -285 305 -1032 446 -1510 83 -281 81 -275 101 -297 20 -23
85 -24 108 -2 24 25 51 84 65 144 12 53 113 417 490 1760 177 633 181 645 218
683 54 56 81 67 164 67 83 0 119 -16 162 -72 54 -71 56 -88 81 -507 13 -218
29 -475 35 -571 38 -631 79 -1371 85 -1550 4 -97 11 -170 17 -178 38 -46 88
-31 123 37 59 119 151 455 184 674 52 347 48 613 -15 967 -115 644 -478 1303
-947 1721 -466 415 -1019 675 -1634 769 -916 139 -1906 -193 -2578 -865 -488
-489 -799 -1144 -881 -1855 -22 -194 -15 -526 15 -723 35 -223 114 -516 183
-680 27 -62 67 -86 104 -62 26 17 48 60 40 81 -5 14 11 335 44 899 6 94 28
478 50 855 22 377 43 728 46 780 7 101 25 159 70 217 37 49 72 63 155 63 83 0
137 -25 181 -82 19 -25 86 -252 293 -988 147 -525 296 -1061 332 -1190 35
-129 71 -258 79 -286 7 -27 24 -66 37 -85 19 -28 30 -35 63 -37 62 -5 74 16
144 253 34 116 86 291 115 390 220 739 430 1453 447 1519 23 93 40 129 70 150
31 22 52 20 82 -6 l26 -23 25 -465 c13 -256 34 -672 46 -925 l21 -460 35 -69
35 -69 -43 -43 c-24 -24 -47 -44 -51 -44 -14 0 -77 61 -98 96 -25 39 -28 80
-55 619 -8 176 -20 406 -25 512 -6 105 -10 226 -10 269 0 46 -4 74 -9 68 -5
-5 -30 -83 -56 -174 -90 -318 -297 -1027 -354 -1215 -32 -104 -66 -221 -75
-260 -32 -136 -94 -238 -167 -275 -49 -26 -140 -26 -194 -1 -41 19 -109 86
-125 124 -5 12 -93 319 -194 682 -102 363 -248 887 -326 1165 -78 278 -146
528 -152 555 -22 103 -58 145 -114 131 -37 -10 -51 -51 -58 -181 -4 -66 -15
-264 -26 -440 -11 -176 -24 -401 -30 -500 -30 -540 -62 -1101 -74 -1336 -13
-249 -16 -269 -39 -315 -49 -97 -105 -129 -208 -122 -45 3 -69 11 -101 34 -36
26 -46 42 -84 139 -251 646 -281 1386 -83 2063 243 831 840 1543 1626 1938
322 163 716 278 1068 313 61 6 128 13 150 15 87 9 496 -4 605 -18z m-742 -255
c54 -37 151 -80 302 -131 264 -90 345 -142 402 -258 32 -65 33 -70 33 -194 0
-69 -4 -130 -8 -134 -9 -10 -181 106 -307 207 -57 45 -156 134 -221 197 -66
63 -119 111 -119 107 0 -18 64 -117 126 -193 99 -124 240 -240 393 -325 l64
-35 -39 -12 c-71 -22 -216 -24 -275 -5 -152 50 -257 178 -323 395 -32 104 -76
400 -60 400 3 0 18 -8 32 -19z m78 -704 c-41 -53 -86 -161 -98 -231 -22 -136
28 -283 126 -374 163 -148 389 -144 552 10 53 50 114 138 114 165 0 16 -99 66
-174 88 -66 19 -116 15 -179 -15 -52 -25 -51 -26 -30 10 38 66 137 107 228 95
29 -3 94 -26 146 -50 144 -69 211 -60 316 40 26 25 48 45 49 45 2 0 -4 -20
-12 -44 -20 -58 -87 -134 -139 -157 -24 -12 -64 -19 -101 -19 l-62 0 -11 -62
c-31 -181 -168 -327 -352 -379 -65 -18 -194 -15 -264 5 -135 40 -261 140 -319
254 -119 235 -40 520 175 629 59 30 64 29 35 -10z m585 -1214 c-46 -739 -71
-1157 -71 -1191 l0 -36 -44 47 c-24 25 -58 53 -75 62 -20 10 -31 23 -31 37 0
27 57 954 70 1143 5 77 10 152 10 167 0 24 9 32 63 58 34 17 68 38 76 45 8 8
17 13 19 11 2 -3 -6 -157 -17 -343z m-566 273 c42 -18 61 -31 66 -48 3 -13 9
-79 13 -148 3 -69 11 -190 16 -270 25 -362 50 -788 50 -840 0 -58 0 -58 -34
-64 -19 -4 -50 -18 -70 -31 -20 -14 -38 -25 -40 -25 -2 0 -6 48 -9 108 -20
345 -77 1292 -80 1320 -4 38 -6 38 88 -2z m350 -1411 c119 -59 170 -186 129
-326 -13 -43 -29 -66 -83 -119 -68 -67 -157 -118 -186 -106 -29 11 -11 40 39
66 119 60 186 154 186 258 0 119 -86 195 -220 196 -112 1 -192 -56 -228 -163
-28 -80 -5 -201 52 -276 14 -18 26 -38 26 -43 0 -6 -19 -21 -42 -35 -111 -65
-172 -165 -172 -282 -1 -89 15 -134 65 -183 47 -48 113 -80 191 -95 103 -19
236 19 330 94 44 35 51 33 118 -35 37 -39 50 -46 82 -46 21 0 38 3 38 6 0 4
-29 39 -65 79 -36 40 -65 78 -65 84 0 6 13 29 29 52 55 76 123 273 108 313 -9
24 -46 20 -56 -6 -5 -13 -25 -74 -45 -136 -50 -157 -121 -259 -175 -250 -10 2
-82 75 -161 163 -79 88 -152 170 -164 183 -18 20 -18 24 -5 38 9 8 22 12 31 9
8 -3 71 -70 140 -148 70 -78 137 -152 151 -165 l24 -23 36 54 c42 63 58 102
88 217 27 102 50 130 109 130 45 0 75 -23 86 -66 10 -39 -30 -177 -81 -278
l-44 -89 67 -74 c37 -41 76 -85 87 -99 20 -25 20 -26 1 -40 -14 -9 -47 -14
-105 -14 l-85 0 -51 50 -51 51 -27 -21 c-14 -11 -56 -35 -94 -53 -65 -31 -73
-32 -193 -32 -119 0 -128 1 -185 30 -75 38 -130 92 -161 158 -20 43 -24 68
-24 142 0 120 29 184 123 272 l66 62 -32 63 c-29 57 -32 72 -32 153 0 73 4 99
23 136 30 61 86 116 147 146 43 20 62 23 135 21 59 -3 97 -10 125 -23z m-191
-92 c3 -16 8 -89 12 -163 l6 -136 -30 -67 c-17 -37 -35 -67 -39 -67 -5 0 -14
12 -21 28 -7 15 -25 48 -40 73 -23 40 -27 60 -30 137 -3 69 0 97 13 122 25 48
81 96 117 99 3 1 9 -11 12 -26z m230 -57 c35 -73 13 -178 -48 -236 l-27 -24 6
84 c16 235 15 231 35 220 9 -5 25 -25 34 -44z m263 -448 c-3 -8 -6 -5 -6 6 -1
11 2 17 5 13 3 -3 4 -12 1 -19z m903 -735 c0 -110 -9 -143 -36 -143 -22 0 -23
3 -26 98 -2 53 -2 100 0 105 2 4 16 7 33 7 l29 0 0 -67z m-2825 -107 c53 -25
110 -79 141 -133 13 -24 23 -31 37 -27 12 4 24 -1 32 -13 21 -27 18 -36 -15
-58 -17 -11 -49 -44 -71 -73 l-40 -53 -29 18 -29 17 20 27 c50 70 49 135 -3
188 -45 46 -85 64 -143 64 -174 0 -369 -256 -316 -416 15 -44 78 -102 125
-116 47 -12 89 0 139 40 38 30 39 31 60 13 12 -11 24 -20 26 -21 2 -1 -18 -28
-45 -59 l-48 -56 -66 4 c-105 8 -196 65 -243 153 -17 31 -22 58 -22 120 0 71
4 88 33 148 45 91 137 188 214 227 80 39 168 42 243 6z m3120 -54 c54 -71 56
-75 39 -93 -24 -27 -34 -24 -75 21 -20 22 -44 40 -52 40 -16 0 -217 -148 -217
-160 0 -6 108 -151 125 -169 4 -4 125 88 125 95 0 3 -12 21 -27 41 l-27 35 25
19 c13 10 27 18 31 16 8 -3 158 -198 158 -206 0 -3 -12 -14 -26 -24 -27 -20
-26 -21 -80 52 -10 12 -19 9 -61 -22 -83 -61 -84 -52 7 -171 45 -58 85 -106
90 -106 10 0 202 148 212 164 14 21 8 44 -27 96 l-35 52 23 19 c12 10 25 18
28 19 6 0 128 -156 132 -170 1 -4 -99 -85 -221 -179 l-224 -171 -19 23 c-18
22 -18 22 26 62 l44 40 -171 222 -170 222 -46 -35 -46 -35 -18 23 c-10 13 -17
25 -17 28 0 8 423 329 431 327 3 -1 32 -35 63 -75z m-2150 -687 c55 -493 47
-448 75 -455 21 -5 24 -11 22 -36 -2 -16 -5 -30 -7 -32 -2 -2 -119 28 -207 54
-12 4 -14 11 -9 32 8 28 14 30 70 17 l34 -7 -7 73 c-4 41 -11 77 -14 81 -9 8
-231 68 -252 68 -8 0 -34 -29 -58 -63 l-43 -62 49 -15 c39 -12 47 -19 44 -35
-2 -11 -7 -24 -12 -28 -5 -6 -202 38 -218 49 -2 1 0 14 4 29 6 23 11 26 36 23
28 -5 37 6 241 293 193 270 213 295 219 270 4 -14 19 -129 33 -256z m1194 198
c21 -74 34 -143 29 -149 -3 -2 -18 -6 -32 -7 -24 -2 -29 3 -44 48 -15 45 -20
50 -49 53 -26 3 -220 -41 -244 -54 -6 -3 48 -214 57 -223 2 -3 38 4 80 14 60
15 74 22 69 34 -4 9 -9 30 -12 48 -5 28 -2 33 22 39 14 3 30 3 34 -2 9 -10 73
-245 69 -249 -2 -2 -17 -6 -34 -9 -30 -7 -31 -6 -44 41 -7 26 -14 49 -15 51
-3 3 -111 -23 -142 -33 -12 -4 -11 -9 27 -155 12 -47 26 -89 30 -93 4 -5 50 3
101 17 51 14 94 24 95 23 2 -1 4 -15 6 -31 l3 -30 -180 -48 c-99 -26 -183 -48
-186 -48 -4 0 -9 14 -11 30 -4 27 -1 31 31 40 20 5 41 10 48 10 6 0 14 4 17 8
3 5 -17 89 -43 188 -27 98 -59 219 -72 267 -22 88 -23 89 -51 83 -92 -19 -85
-20 -91 11 -3 15 -4 29 -3 30 5 5 484 131 503 132 17 1 24 -7 32 -36z m-2731
-86 c556 -509 1341 -820 2067 -820 712 0 1454 286 2028 782 83 72 112 91 136
91 37 0 71 -33 71 -69 0 -31 -92 -123 -239 -240 -1067 -848 -2514 -936 -3671
-223 -165 102 -376 263 -511 392 -44 41 -52 89 -22 122 31 35 77 24 141 -35z"/>
<path d="M8901 3059 c-50 -73 -89 -134 -87 -136 2 -2 51 -16 110 -32 106 -29
106 -29 106 -7 -1 41 -29 298 -33 303 -3 2 -46 -55 -96 -128z"/>
</g>
</svg>
